<?xml version="1.0" encoding="utf-8"?>
<!-- Generator: Adobe Illustrator 25.2.0, SVG Export Plug-In . SVG Version: 6.00 Build 0)  -->
<svg version="1.1" id="Layer_1" xmlns="http://www.w3.org/2000/svg" xmlns:xlink="http://www.w3.org/1999/xlink" x="0px" y="0px"
	 viewBox="0 0 20 20" style="enable-background:new 0 0 20 20;" xml:space="preserve">
<style type="text/css">
	.st0{fill:#EE8422;}
	.st1{fill:#FAAE1C;}
	.st2{display:none;opacity:0.5;fill:#FFC73C;}
	.st3{fill:#FFFFFF;}
</style>
<g>
	<path class="st0" d="M15.40182,15.59439c0,1.32701-1.07576,2.40277-2.40277,2.40277H0V4.27232
		c0-1.2534,1.01608-2.26949,2.26949-2.26949h13.13233V15.59439z"/>
	<path class="st1" d="M19.75747,9.28074l-3.51929,7.03859c-0.51258,1.02516-1.56036,1.67272-2.70652,1.67272H0L5.99787,5.9963
		h11.72971C19.41468,5.9963,20.51197,7.77175,19.75747,9.28074z"/>
	<path class="st2" d="M15.42108,5.9963l-1.17953,2.49012c-0.5006,1.05682-1.56531,1.7306-2.7347,1.7306H3.90677L6.01714,5.9963
		H15.42108z"/>
	<path class="st3" d="M10.93892,8.35882c-2.0045,0-3.63531,1.63076-3.63531,3.63523c0,2.00455,1.63081,3.63548,3.63531,3.63548
		c2.00448,0,3.63537-1.63093,3.63537-3.63548C14.57429,9.98958,12.9434,8.35882,10.93892,8.35882z M7.6705,11.99405
		c0-0.47388,0.10166-0.92371,0.28301-1.33018l1.55911,4.27171C8.42225,14.40588,7.6705,13.28775,7.6705,11.99405z
		 M10.93892,15.26272c-0.32081,0-0.63048-0.04704-0.92337-0.13318l0.98076-2.84958l1.00459,2.75243
		c0.00661,0.01615,0.01473,0.03103,0.0234,0.04504C11.68459,15.19702,11.31954,15.26272,10.93892,15.26272z M11.38938,10.46163
		c0.19674-0.01035,0.37406-0.03107,0.37406-0.03107c0.17612-0.02083,0.15534-0.27968-0.02085-0.26936
		c0,0-0.5294,0.04155-0.87116,0.04155c-0.32115,0-0.86081-0.04155-0.86081-0.04155
		c-0.17625-0.01031-0.19691,0.25895-0.02073,0.26936c0,0,0.16672,0.02072,0.34282,0.03107l0.50919,1.39522l-0.71536,2.14517
		l-1.19016-3.54039c0.19691-0.01035,0.37404-0.03107,0.37404-0.03107c0.176-0.02083,0.15521-0.27968-0.02091-0.26936
		c0,0-0.52931,0.04155-0.8711,0.04155c-0.06133,0-0.13361-0.0015-0.21036-0.00396c0.58444-0.88724,1.58896-1.47316,2.73087-1.47316
		c0.85089,0,1.62565,0.32534,2.20712,0.85814c-0.01409-0.00088-0.02784-0.00265-0.04234-0.00265
		c-0.32105,0-0.54886,0.27969-0.54886,0.58008c0,0.26936,0.15542,0.49725,0.32105,0.7666
		c0.12431,0.21767,0.26947,0.49732,0.26947,0.9014c0,0.27971-0.10759,0.60433-0.2487,1.05661l-0.32609,1.08923L11.38938,10.46163z
		 M13.80701,10.42604c0.25512,0.46552,0.40032,0.99975,0.40032,1.56802c0,1.20583-0.65349,2.25855-1.62518,2.82511l0.99829-2.88636
		c0.18645-0.46629,0.24855-0.83913,0.24855-1.17066C13.82899,10.64181,13.82106,10.53014,13.80701,10.42604z"/>
</g>
</svg>
